<svg xmlns="http://www.w3.org/2000/svg" data-name="Layer 1" viewBox="0 0 512 640" x="0px" y="0px"><path d="M202,219.845a20.545,20.545,0,0,1,18-20.409V53.816A146.544,146.544,0,0,0,78,200.347V250H202ZM170.642,90.118A123.336,123.336,0,0,0,102,189.661a5,5,0,0,1-4.976,4.568c-.145,0-.291-.007-.438-.02a5,5,0,0,1-4.549-5.414A133.39,133.39,0,0,1,166.258,81.129a5,5,0,0,1,4.384,8.989Zm25.221-9.035c-2.565.611-5.138,1.313-7.647,2.087a5,5,0,0,1-2.946-9.556c2.715-.837,5.5-1.6,8.274-2.259a5,5,0,0,1,2.319,9.728Z"/><path d="M212,219.845V250h88V219.845c0-5.812-4.33-10.845-10.158-10.845H222.158C216.33,209,212,214.033,212,219.845Z"/><path d="M282,47.826a26,26,0,1,0-52,0V199h52Z"/><path d="M310,219.845V250H434V200.347A146.544,146.544,0,0,0,292,53.816v145.62A20.545,20.545,0,0,1,310,219.845Z"/><path d="M152.4,317c2.527,55,48.357,99.356,104.338,99.356S358.547,372,361.073,317H320.631a64.086,64.086,0,0,1-127.791,0Z"/><path d="M256.735,366.148C284.963,366.148,308.2,344,310.61,317H202.861C205.274,344,228.508,366.148,256.735,366.148Z"/><path d="M391.3,349.946a5,5,0,0,1,3.944-3.571L432,339.883V317H371.081c-2.514,61-52.837,109.356-114.346,109.356S144.9,378,142.389,317H78v22.851l38.516,6.507a5,5,0,0,1,3.981,3.578,140.278,140.278,0,0,0,13.032,30.848,5,5,0,0,1-.271,5.345L111,417.6l39.718,39.555,31.618-22.3a5,5,0,0,1,5.329-.275,141.845,141.845,0,0,0,30.96,13.121,5,5,0,0,1,3.583,3.974L228.747,490h56.1l6.525-38.319a5,5,0,0,1,3.584-3.976A141.075,141.075,0,0,0,325.9,434.746a5,5,0,0,1,5.323.271l31.593,22.222,39.671-39.588-22.348-31.5a5,5,0,0,1-.276-5.352C385.371,371.052,388.385,360.322,391.3,349.946Z"/><path d="M70.247,307H441.753a23.5,23.5,0,0,0,0-47H70.247a23.5,23.5,0,0,0,0,47Z"/><text x="0" y="527" fill="#ffffff" font-size="5px" font-weight="bold" font-family="'Helvetica Neue', Helvetica, Arial-Unicode, Arial, Sans-serif">Created by Icongeek26</text><text x="0" y="532" fill="#000000" font-size="5px" font-weight="bold" font-family="'Helvetica Neue', Helvetica, Arial-Unicode, Arial, Sans-serif">from the Noun Project</text></svg>
