<svg xmlns="http://www.w3.org/2000/svg" xmlns:xlink="http://www.w3.org/1999/xlink" version="1.1" x="0px" y="0px" viewBox="0 0 64 80" style="enable-background:new 0 0 64 64;" xml:space="preserve"><g><path d="M46,15c-6.065,0-11,4.935-11,11s4.935,11,11,11s11-4.935,11-11S52.065,15,46,15z M46,35c-4.962,0-9-4.037-9-9s4.038-9,9-9   s9,4.037,9,9S50.962,35,46,35z"/><path d="M46,21c-2.757,0-5,2.243-5,5s2.243,5,5,5s5-2.243,5-5S48.757,21,46,21z M46,29c-1.654,0-3-1.346-3-3s1.346-3,3-3   s3,1.346,3,3S47.654,29,46,29z"/><path d="M63,29.729v-7.459l-2.734-0.876c-0.248-0.772-0.556-1.519-0.919-2.229l1.312-2.549l-5.274-5.274L53,12.568V1H17.586   L7,11.586V49.08C3.613,49.568,1,52.481,1,56c0,3.859,3.14,7,7,7h44.231l9.36-4.571l0.091-0.051C62.507,57.862,63,56.973,63,56   s-0.493-1.862-1.318-2.378L53,49.376v-9.945l2.384,1.226l5.274-5.273l-1.312-2.549c0.363-0.709,0.67-1.455,0.919-2.229L63,29.729z    M51,11.879c-0.132-0.047-0.26-0.101-0.394-0.144L49.729,9h-7.459l-0.876,2.734c-0.774,0.249-1.52,0.557-2.229,0.919l-2.549-1.312   l-5.274,5.274l1.312,2.549c-0.363,0.711-0.671,1.457-0.919,2.229L29,22.271v7.459l2.734,0.876c0.249,0.774,0.556,1.521,0.919,2.229   l-1.312,2.549l5.274,5.273l2.548-1.311c0.709,0.362,1.456,0.67,2.229,0.919L42.271,43h7.459l0.876-2.734   c0.134-0.043,0.262-0.098,0.394-0.144V49H9V13h10V3h32V11.879z M51,51v4H13v-4H51z M13,57h38v4H13V57z M10.414,11L17,4.414V11   H10.414z M3,56c0-2.757,2.243-5,5-5h3v10H8C5.243,61,3,58.757,3,56z M61,56c0,0.265-0.127,0.509-0.343,0.659L53,60.399v-8.798   l7.657,3.74C60.873,55.491,61,55.735,61,56z M58.644,29.024l-0.146,0.517c-0.279,0.989-0.667,1.93-1.153,2.796l-0.263,0.469   l1.13,2.195l-3.211,3.211l-2.195-1.129l-0.468,0.263c-0.867,0.484-1.807,0.872-2.796,1.152l-0.517,0.146L48.271,41h-4.541   l-0.755-2.356l-0.517-0.146c-0.989-0.28-1.929-0.668-2.796-1.152l-0.468-0.263l-2.195,1.129l-3.211-3.211l1.13-2.195l-0.263-0.469   c-0.485-0.866-0.874-1.807-1.153-2.796l-0.146-0.517L31,28.271v-4.541l2.356-0.754l0.146-0.517   c0.278-0.986,0.667-1.927,1.153-2.797l0.262-0.469l-1.129-2.194l3.211-3.212l2.195,1.13l0.468-0.263   c0.867-0.484,1.807-0.872,2.796-1.152l0.517-0.146L43.729,11h4.541l0.755,2.356l0.517,0.146c0.989,0.28,1.929,0.668,2.796,1.152   l0.468,0.263l2.195-1.13l3.211,3.212l-1.129,2.194l0.262,0.469c0.487,0.87,0.875,1.811,1.153,2.797l0.146,0.517L61,23.729v4.541   L58.644,29.024z"/><path d="M11,18c0,1.654,1.346,3,3,3h10c0.551,0,1,0.448,1,1s-0.449,1-1,1h-5c-1.654,0-3,1.346-3,3s1.346,3,3,3h2   c0.551,0,1,0.448,1,1s-0.449,1-1,1h-7c-1.654,0-3,1.346-3,3s1.346,3,3,3h14v-2H14c-0.551,0-1-0.448-1-1s0.449-1,1-1h7   c1.654,0,3-1.346,3-3s-1.346-3-3-3h-2c-0.551,0-1-0.448-1-1s0.449-1,1-1h5c1.654,0,3-1.346,3-3s-1.346-3-3-3H14   c-0.551,0-1-0.448-1-1s0.449-1,1-1h15v-2H14C12.346,15,11,16.346,11,18z"/><rect x="11" y="41" width="2" height="2"/><rect x="15" y="41" width="14" height="2"/><rect x="11" y="45" width="18" height="2"/><rect x="31" y="45" width="2" height="2"/><rect x="39" y="45" width="2" height="2"/><rect x="35" y="45" width="2" height="2"/><rect x="47" y="5" width="2" height="2"/><rect x="39" y="5" width="2" height="2"/><rect x="43" y="5" width="2" height="2"/></g><text x="0" y="79" fill="#ffffff" font-size="5px" font-weight="bold" font-family="'Helvetica Neue', Helvetica, Arial-Unicode, Arial, Sans-serif"></text><text x="0" y="84" fill="#000000" font-size="5px" font-weight="bold" font-family="'Helvetica Neue', Helvetica, Arial-Unicode, Arial, Sans-serif"></text></svg>
